<?xml version="1.0" encoding="UTF-8" standalone="no"?>
<!-- Created with Inkscape (http://www.inkscape.org/) -->

<svg
   width="16"
   height="16"
   viewBox="0 0 16 16"
   version="1.1"
   id="svg1"
   inkscape:version="1.4.2 (ebf0e940, 2025-05-08)"
   sodipodi:docname="extruder.svg"
   inkscape:export-filename="extruder.png"
   inkscape:export-xdpi="1536"
   inkscape:export-ydpi="1536"
   xmlns:inkscape="http://www.inkscape.org/namespaces/inkscape"
   xmlns:sodipodi="http://sodipodi.sourceforge.net/DTD/sodipodi-0.dtd"
   xmlns="http://www.w3.org/2000/svg"
   xmlns:svg="http://www.w3.org/2000/svg">
  <sodipodi:namedview
     id="namedview1"
     pagecolor="#505050"
     bordercolor="#eeeeee"
     borderopacity="1"
     inkscape:showpageshadow="0"
     inkscape:pageopacity="0"
     inkscape:pagecheckerboard="true"
     inkscape:deskcolor="#505050"
     inkscape:document-units="px"
     inkscape:zoom="22.341261"
     inkscape:cx="10.697695"
     inkscape:cy="6.7587948"
     inkscape:window-width="1440"
     inkscape:window-height="761"
     inkscape:window-x="0"
     inkscape:window-y="25"
     inkscape:window-maximized="1"
     inkscape:current-layer="layer1" />
  <defs
     id="defs1" />
  <g
     inkscape:label="Layer 1"
     inkscape:groupmode="layer"
     id="layer1">
    <path
       id="rect1"
       style="fill:#999999;stroke:#666666;stroke-width:1.5;stroke-linecap:round;stroke-linejoin:round;stroke-dasharray:none"
       d="M 0.75 0.75 L 0.75 15.25 L 15.25 15.25 L 15.25 0.75 L 0.75 0.75 z M 8 6 A 2 2 0 0 1 10 8 A 2 2 0 0 1 8 10 A 2 2 0 0 1 6 8 A 2 2 0 0 1 8 6 z " />
    <path
       style="opacity:1;baseline-shift:baseline;display:inline;overflow:visible;vector-effect:none;fill:#666666;stroke-linecap:round;stroke-linejoin:round;enable-background:accumulate;stop-color:#000000;stop-opacity:1"
       d="M 8,5.25 C 6.4901004,5.25 5.25,6.4901004 5.25,8 5.25,9.5098996 6.4901004,10.75 8,10.75 9.5098996,10.75 10.75,9.5098996 10.75,8 10.75,6.4901004 9.5098996,5.25 8,5.25 Z m 0,1.5 C 8.6992394,6.75 9.25,7.3007606 9.25,8 9.25,8.6992394 8.6992394,9.25 8,9.25 7.3007606,9.25 6.75,8.6992394 6.75,8 6.75,7.3007606 7.3007606,6.75 8,6.75 Z"
       id="path3" />
  </g>
</svg>
