<svg xmlns="http://www.w3.org/2000/svg" width="16" height="16" viewBox="0 0 16 16"><path d="M.75.75v14.5h14.5V.75zM8 6a2 2 0 0 1 2 2 2 2 0 0 1-2 2 2 2 0 0 1-2-2 2 2 0 0 1 2-2" style="fill:#999;stroke:#666;stroke-width:1.5;stroke-linecap:round;stroke-linejoin:round;stroke-dasharray:none"/><path d="M8 5.25C6.5 5.25 5.25 6.5 5.25 8S6.5 10.75 8 10.75 10.75 9.5 10.75 8 9.5 5.25 8 5.25m0 1.5c.75 0 1.25.5 1.25 1.25S8.75 9.25 8 9.25 6.75 8.75 6.75 8 7.25 6.75 8 6.75" style="opacity:1;baseline-shift:baseline;display:inline;overflow:visible;vector-effect:none;fill:#666;stroke-linecap:round;stroke-linejoin:round;stop-color:#000;stop-opacity:1"/></svg>