<svg xmlns="http://www.w3.org/2000/svg" xml:space="preserve" width="16" height="16" viewBox="0 0 16 16"><path d="M7.115.076a7.1 7.1 0 0 0-2.816.85C1.036 2.715-.34 6.923 1.477 10.234c1.653 3.013 5.537 4.283 8.593 2.605 2.781-1.527 3.954-5.113 2.405-7.935-1.41-2.57-4.723-3.653-7.33-2.221C2.77 3.987 1.77 7.046 3.095 9.456c1.204 2.194 4.03 3.117 6.257 1.894 2.028-1.113 2.882-3.727 1.751-5.786-1.03-1.876-3.445-2.665-5.35-1.618-1.735.953-2.466 3.188-1.498 4.95.882 1.607 2.951 2.284 4.583 1.387 1.488-.817 2.114-2.733 1.283-4.245C9.364 4.66 7.59 4.08 6.19 4.85c-1.278.702-1.816 2.346-1.102 3.646.651 1.185 2.176 1.684 3.382 1.021 1.1-.604 1.564-2.02.948-3.14-.562-1.023-1.876-1.452-2.917-.88-.95.522-1.35 1.745-.818 2.713.486.884 1.623 1.255 2.524.76.408-.225.696-.6.829-1.022a1.78 1.78 0 0 1-.84 1.067c-.92.506-2.105.119-2.607-.794-.556-1.013-.13-2.318.875-2.87 1.115-.613 2.549-.144 3.156.962.673 1.225.158 2.8-1.057 3.468-1.345.74-3.072.174-3.805-1.16-.81-1.476-.192-3.371 1.27-4.175 1.619-.889 3.694-.21 4.575 1.394.973 1.773.231 4.045-1.525 5.01-1.94 1.065-4.426.253-5.481-1.67C2.43 7.059 3.319 4.34 5.42 3.186c2.32-1.274 5.291-.303 6.552 1.994 1.392 2.536.33 5.782-2.18 7.16-2.768 1.52-6.311.362-7.815-2.38-1.66-3.023-.395-6.89 2.596-8.532 3.3-1.811 7.517-.432 9.309 2.832 1.974 3.599.47 8.2-3.09 10.153-1.04.57-2.209.9-3.394.963l.03.571a8.5 8.5 0 0 0 3.64-1.032c3.831-2.103 5.447-7.044 3.315-10.93C12.928 1.333 10.001-.17 7.115.076Z" style="baseline-shift:baseline;display:inline;overflow:visible;opacity:1;fill:#483e37;fill-opacity:1;fill-rule:evenodd;stroke:#000;stroke-width:.0999997;stroke-dasharray:none;stroke-opacity:1;stop-color:#000;stop-opacity:1"/></svg>